<svg version="1" xmlns="http://www.w3.org/2000/svg" width="682.667" height="682.667" viewBox="0 0 512.000000 512.000000"><path d="M205.5 33.4c-39.5 6.5-71.8 28.9-92.3 64.1-7.8 13.3-14.1 32.7-16.2 49.5-.5 4.6-1 16.1-1 25.5v17l-6.3 1.8c-8.3 2.5-22.7 9.3-31.2 15-29.1 19.1-48.3 48.2-56.2 84.8-2.7 12.4-2.7 70.4 0 82.8 10.4 48 42.2 84.9 85.7 99.5 19.4 6.4 8.5 6 162.5 6.4 97.9.2 142.6 0 148.5-.8 17.6-2.3 33.7-7.8 48.8-16.7 31.4-18.5 53.3-49.4 61.7-87.3 2.2-9.9 3.3-59.2 1.6-73.9-5.2-44.8-31.9-83.2-71.2-102.5-5.9-2.9-13.7-6.1-17.2-7.2l-6.5-1.8-.5-22.6c-.7-29.1-3.7-43-13.4-62.5-18.4-36.8-48.9-60.7-89.3-70.1-6.4-1.5-14.1-1.8-53.5-2-34.3-.2-48 .1-54 1zm97.8 43c27.2 5.2 51.9 25.4 62.5 50.9 6.1 14.9 6.5 17.6 7.1 53.2.7 35.9.6 35.8 6.7 41.9 4.1 4 7.2 5.4 15 6.6 33.3 5.1 58.9 26.4 69.3 57.5 4.7 14.1 5.3 20.7 4.9 50.9-.5 29.2-1 32.7-7 47.3-8.4 20.1-27.8 39.1-47.9 46.7-15.5 5.8-9.7 5.6-157.9 5.6-120.3 0-137-.2-143.8-1.6-32.8-6.7-57.5-30.8-66.8-65-1.7-6-1.9-10.7-1.9-37.4 0-26.8.2-31.4 1.9-38 9.3-36.2 35.7-60.4 72-66 7.8-1.2 10.9-2.6 15-6.6 6.1-6.1 6-6 6.7-41.9.6-35.6 1-38.3 7.1-53.2C156.7 102 181 82 208 76.5c9.7-2 85.1-2 95.3-.1z"/><path d="M195 208.1c-4.8 1.9-9.3 6.2-11.6 11.3-2.3 4.9-2.4 6.1-2.4 25.7v20.7l2.8 5.3c4 7.7 10.2 11.4 19.2 11.4 5.6 0 7.3-.4 10.8-2.8 2.3-1.5 5.4-4.6 6.9-6.9l2.8-4.1.3-21.6c.2-13.9-.1-22.9-.8-25.4-1.4-4.9-6.5-10.6-11.5-12.8-4.3-2-12.5-2.4-16.5-.8zM300.5 208.9c-2.2 1-5.2 3.1-6.7 4.7-5.3 5.7-5.8 8.5-5.8 31.7 0 20.1.1 21.5 2.3 25.7 7.9 15.8 30.2 15.7 38.1-.1 2.6-5.2 2.6-5.6 2.6-25.8 0-19.6-.1-20.9-2.4-25.7-4.9-10.6-17.6-15.3-28.1-10.5zM192.8 330c-6.6 3.5-11.8 12-11.8 19.1 0 4.9 2.3 10.2 6.1 14.4 3.4 3.7 6.1 5.1 21.7 11.3 22.8 9.1 29.9 10.7 47.2 10.7 17.2 0 24.3-1.6 47.2-10.6 15.6-6.2 18.1-7.5 21.6-11.3 7.8-8.4 8.1-19.4 1-28.1-4.2-5-9.6-7.5-16.3-7.5-4.4 0-8.2 1.1-18.8 5.4-19.1 7.8-23.6 9-34.7 9-11.1-.1-16-1.3-34.7-9-15-6.1-21.7-6.9-28.5-3.4z"/></svg>